Coordinates
version=1
nRows=21
nColumns=22
inDegrees=yes

Units are S.I. units (second, meters, Newtons, ...)
If the header above contains a line with 'inDegrees', this indicates whether rotational values are in degrees (yes) or radians (no).

endheader
time	pelvis_tilt	pelvis_list	pelvis_rotation	pelvis_tx	pelvis_ty	pelvis_tz	hip_flexion_r	hip_adduction_r	hip_rotation_r	knee_angle_r	ankle_angle_r	subtalar_angle_r	hip_flexion_l	hip_adduction_l	hip_rotation_l	knee_angle_l	ankle_angle_l	subtalar_angle_l	lumbar_extension	lumbar_bending	lumbar_rotation
      2.76000000	     -1.47310818	      7.36333768	     -0.87940971	      0.08273962	      1.05119711	     -0.31502755	     -4.51211405	     -6.20510498	      2.54631566	    -23.46446786	     21.23074997	     -3.06643219	     21.73143794	      7.85835470	     -0.44220396	    -21.56911668	      2.62351711	     -0.16677500	     -4.31661990	    -10.28548949	      1.02280104
      2.77000000	     -1.52148201	      7.10556603	     -0.89635241	      0.07193160	      1.05117808	     -0.31345686	     -4.24728479	     -5.85265858	      2.02623966	    -22.64431560	     21.80873739	     -4.01742391	     22.02600235	      7.48688843	     -0.11116602	    -20.87277689	      1.81765231	      0.27271987	     -4.71564448	     -9.83375827	      1.11138025
      2.78000000	     -1.56192315	      6.81928384	     -0.82806830	      0.06113534	      1.05139481	     -0.31204153	     -3.89696149	     -5.46919188	      1.48258190	    -22.02260905	     22.18210228	     -4.64843798	     22.21575450	      7.12391156	      0.44095374	    -20.04345101	      1.01117494	      0.84516362	     -5.13995578	     -9.35354645	      1.07167881
      2.79000000	     -1.60262160	      6.53058390	     -0.74970439	      0.05044625	      1.05182249	     -0.31065013	     -3.47834144	     -5.07494438	      1.09515383	    -21.54533404	     22.41951016	     -5.25461563	     22.31982281	      6.75087080	      1.06786495	    -19.11793605	      0.30148411	      1.77933345	     -5.55195692	     -8.88137936	      0.99979072
      2.80000000	     -1.62809348	      6.22401857	     -0.61954496	      0.03987775	      1.05247074	     -0.30935023	     -2.99274550	     -4.66708840	      0.73780047	    -21.25609857	     22.48546858	     -5.66415051	     22.33438565	      6.37412364	      1.86004330	    -18.15212453	     -0.25847398	      2.96147466	     -5.97712864	     -8.39670782	      0.82721080
      2.81000000	     -1.63938896	      5.90010447	     -0.43014007	      0.02952958	      1.05333473	     -0.30815165	     -2.47988843	     -4.24374823	      0.42711388	    -21.09000722	     22.43727960	     -5.93925791	     22.28043576	      5.99247548	      2.78737188	    -17.21982876	     -0.58517160	      4.40855782	     -6.39920025	     -7.90137292	      0.55535578
      2.82000000	     -1.63158318	      5.56249383	     -0.19317232	      0.01944970	      1.05442826	     -0.30704146	     -1.95794061	     -3.81203371	      0.14389721	    -21.01547181	     22.23910809	     -6.09876750	     22.18008981	      5.60119286	      3.76574666	    -16.40015704	     -0.64655891	      6.08661928	     -6.81385578	     -7.39889817	      0.20467982
      2.83000000	     -1.59620495	      5.21406101	      0.09776717	      0.00967851	      1.05574086	     -0.30604049	     -1.45701213	     -3.37479541	     -0.13870643	    -20.99827134	     21.91944908	     -6.16475173	     22.05773717	      5.20744856	      4.73006833	    -15.78290727	     -0.40929727	      7.85016557	     -7.22375885	     -6.89255000	     -0.23449419
      2.84000000	     -1.53107820	      4.86279509	      0.44046229	      0.00023934	      1.05726387	     -0.30515891	     -1.00576683	     -2.93877816	     -0.43365746	    -20.98555221	     21.49586993	     -6.16907406	     21.93838234	      4.82218559	      5.58874937	    -15.43836254	      0.10855405	      9.51406058	     -7.62354711	     -6.38851563	     -0.75123244
      2.85000000	     -1.43575654	      4.52799314	      0.82918031	     -0.00886281	      1.05896499	     -0.30441545	     -0.62446284	     -2.52291745	     -0.74391212	    -20.93996553	     20.99101908	     -6.14952543	     21.84041516	      4.46908985	      6.27608382	    -15.41466209	      0.87079768	     10.89136673	     -8.00690514	     -5.90564094	     -1.33070506
      2.86000000	     -1.31186185	      4.22179956	      1.24112648	     -0.01764803	      1.06079937	     -0.30376869	     -0.32144444	     -2.13622636	     -1.06040415	    -20.83578002	     20.43702100	     -6.14242350	     21.77768516	      4.15109921	      6.69270932	    -15.73578826	      1.83291740	     11.85554709	     -8.37111832	     -5.46115879	     -1.94770973
      2.87000000	     -1.16854535	      3.95281049	      1.67715530	     -0.02612211	      1.06272664	     -0.30320690	     -0.10585310	     -1.78372356	     -1.38116615	    -20.63836015	     19.80999097	     -6.16797357	     21.75554286	      3.87602899	      6.84481822	    -16.39362292	      2.87600868	     12.33332219	     -8.70186393	     -5.06855528	     -2.58694104
      2.88000000	     -0.99505663	      3.71562948	      2.08813675	     -0.03432227	      1.06469070	     -0.30264396	      0.03626062	     -1.45714320	     -1.66679633	    -20.38794319	     19.22401868	     -6.21555638	     21.75034766	      3.60549660	      6.63991089	    -17.35183569	      3.97237422	     12.37030800	     -9.01572332	     -4.72551741	     -3.19736516
      2.89000000	     -0.82535357	      3.51187964	      2.48996148	     -0.04225394	      1.06662465	     -0.30209261	      0.12534166	     -1.16262620	     -1.95517817	    -20.05310168	     18.59576726	     -6.31339251	     21.79236658	      3.33828900	      6.14034742	    -18.58991212	      5.01843129	     12.21258221	     -9.27095559	     -4.43483586	     -3.77632214
      2.90000000	     -0.67985174	      3.29997378	      2.86178519	     -0.04995109	      1.06845150	     -0.30148896	      0.19860025	     -0.85450764	     -2.22381344	    -19.65327354	     17.94471522	     -6.51047081	     21.88571429	      3.01210604	      5.36772788	    -20.05310497	      5.94320708	     11.72821569	     -9.44823567	     -4.15679764	     -4.27236978
      2.91000000	     -0.53797127	      3.08889581	      3.15936132	     -0.05745076	      1.07016291	     -0.30076623	      0.26001786	     -0.54442293	     -2.41624480	    -19.23112460	     17.31955888	     -6.71206961	     21.97555499	      2.61370509	      4.37119595	    -21.67182108	      6.75224390	     10.91656092	     -9.58043617	     -3.90191557	     -4.67169498
      2.92000000	     -0.40997822	      2.86785198	      3.38980335	     -0.06472220	      1.07172883	     -0.29993968	      0.30891439	     -0.22804422	     -2.56353293	    -18.76579639	     16.72808159	     -6.89254426	     22.04973429	      2.13488419	      3.24445304	    -23.39749356	      7.45417238	      9.92142682	     -9.64992782	     -3.65914340	     -4.94577644
      2.93000000	     -0.29755359	      2.61194247	      3.54334080	     -0.07183560	      1.07313865	     -0.29897924	      0.36808821	      0.12058250	     -2.65853401	    -18.28743775	     16.13225993	     -7.04323447	     22.09712580	      1.55524674	      2.08408267	    -25.18475557	      8.01464370	      8.85204881	     -9.66783533	     -3.40226883	     -5.09385484
      2.94000000	     -0.19847349	      2.33000265	      3.62144884	     -0.07880631	      1.07438716	     -0.29794621	      0.44079115	      0.48558826	     -2.70680785	    -17.80780738	     15.55645617	     -7.16201486	     22.09564907	      0.90833789	      0.99407543	    -26.99359243	      8.47703944	      7.75798946	     -9.64020716	     -3.12948271	     -5.12613057
      2.95000000	     -0.11032989	      2.02174665	      3.63207252	     -0.08565368	      1.07548553	     -0.29687459	      0.52611430	      0.86594643	     -2.71709133	    -17.33176569	     14.99621740	     -7.24202950	     22.03235225	      0.21991531	      0.05293737	    -28.79138802	      8.84598296	      6.71537926	     -9.57482033	     -2.83776224	     -5.05007917
      2.96000000	     -0.02564826	      1.69790735	      3.59059078	     -0.09239889	      1.07645129	     -0.29582186	      0.61655452	      1.24997529	     -2.70085049	    -16.86549691	     14.46008964	     -7.27971952	     21.89310700	     -0.46708924	     -0.66996469	    -30.55222263	      9.14824846	      5.79708873	     -9.48684411	     -2.53228168	     -4.89599866
